PathFileType	4	(X/Y/Z)	C:/Users/opensim2020/Desktop/walking_exp_matlab/subject03_walking13_straight_04.trc																																																																																																																																								
DataRate	CameraRate	NumFrames	NumMarkers	Units	OrigDataRate	OrigDataStartFrame	OrigNumFrames																																																																																																																																				
100	100	5	46	mm	100	2162	200																																																																																																																																				
Frame#	Time	LFHD			RFHD			LBHD			RBHD			C7			T10			CLAV			STRN			RBAK			LSHO			LUPA			LELB			LFRM			LWRA			LWRB			LFIN			RSHO			RUPA			RELB			RFRM			RWRA			RWRB			RFIN			LASI			RASI			LPSI			RPSI			LTHI			LKNE			LTIB			LANK			LHEE			LTOE			RTHI			RKNE			RTIB			RANK			RHEE			RTOE			*39			*40			*41			*42			*43			*44			*45		
		X1	Y1	Z1	X2	Y2	Z2	X3	Y3	Z3	X4	Y4	Z4	X5	Y5	Z5	X6	Y6	Z6	X7	Y7	Z7	X8	Y8	Z8	X9	Y9	Z9	X10	Y10	Z10	X11	Y11	Z11	X12	Y12	Z12	X13	Y13	Z13	X14	Y14	Z14	X15	Y15	Z15	X16	Y16	Z16	X17	Y17	Z17	X18	Y18	Z18	X19	Y19	Z19	X20	Y20	Z20	X21	Y21	Z21	X22	Y22	Z22	X23	Y23	Z23	X24	Y24	Z24	X25	Y25	Z25	X26	Y26	Z26	X27	Y27	Z27	X28	Y28	Z28	X29	Y29	Z29	X30	Y30	Z30	X31	Y31	Z31	X32	Y32	Z32	X33	Y33	Z33	X34	Y34	Z34	X35	Y35	Z35	X36	Y36	Z36	X37	Y37	Z37	X38	Y38	Z38	X39	Y39	Z39	X40	Y40	Z40	X41	Y41	Z41	X42	Y42	Z42	X43	Y43	Z43	X44	Y44	Z44	X45	Y45	Z45	X46	Y46	Z46
																																																																																																																																											
1	0	-1380.36877	1616.54382	-1455.34924	-1394.69189	1618.73193	-1323.17773	-1510.55566	1581.62659	-1465.57019	-1519.95081	1582.85315	-1334.91797	-1551.77063	1413.69543	-1415.47388	-1575.76941	1099.12439	-1420.13269	-1430.43262	1339.82275	-1406.40857	-1378.41968	1177.52087	-1412.62695	-1606.74524	1230.44836	-1329.30981	-1463.24927	1380.58826	-1563.89661	-1479.75073	1186.30493	-1643.14917	-1489.3009	1064.08008	-1661.42859	-1490.1991	933.72241	-1671.33533	-1503.28027	811.45856	-1652.45288	-1517.20642	826.41895	-1705.39563	-1537.22595	740.86414	-1700.59668	-1492.94958	1358.98645	-1251.00854	-1473.79016	1135.03088	-1186.25391	-1441.22339	1026.60413	-1181.09912	-1386.89404	902.12817	-1194.42908	-1330.24597	826.87097	-1241.11694	-1359.09961	805.6264	-1200.93933	-1315.0365	748.1106	-1219.46472	-1400.27319	952.51257	-1535.0481	-1414.8042	928.27673	-1298.48145	-1567.18213	967.67212	-1495.14795	-1573.27136	955.50879	-1345.96313	-1423.90869	653.53888	-1600.4574	-1396.96741	478.5	-1565.97498	-1447.76282	284.09827	-1584.54163	-1475.76404	73.9045	-1556.80249	-1518.98865	36.91215	-1522.96619	-1325.45728	36.414	-1530.51062	-1447.49255	625.37714	-1266.49988	-1400.60925	451.50558	-1289.91797	-1548.96082	336.7905	-1297.46985	-1722.49341	214.45946	-1347.46277	-1768.40039	229.94696	-1404.61047	-1680.13318	77.60042	-1356.39331	-1462.55798	1681.58472	-1415.66125	NaN	NaN	NaN	NaN	NaN	NaN	NaN	NaN	NaN	NaN	NaN	NaN	NaN	NaN	NaN	NaN	NaN	NaN
2	0.01	-1368.66846	1617.45593	-1456.60291	-1383.68286	1620.00549	-1324.53931	-1498.7384	1582.26538	-1467.39001	-1508.87097	1583.87012	-1336.97266	-1540.20886	1414.76123	-1417.43005	-1564.40222	1100.16614	-1422.72766	-1419.04053	1340.85913	-1407.48108	-1367.10168	1178.44116	-1413.58752	-1596.38647	1231.29834	-1332.48364	-1450.86133	1381.3855	-1565.26917	-1463.64478	1186.97314	-1644.88892	-1471.19482	1064.85693	-1664.07727	-1470.18091	934.7749	-1674.95752	-1481.4342	812.46808	-1657.08704	-1494.8855	827.32727	-1709.99341	-1509.17065	741.46295	-1706.92114	-1482.70337	1359.28638	-1252.31665	-1465.48901	1135.34509	-1187.65222	-1433.39307	1026.53601	-1181.89026	-1381.17688	900.90503	-1193.98682	-1325.62292	824.3338	-1239.66345	-1355.23535	803.85931	-1199.58276	-1312.05408	745.51074	-1216.97351	-1388.79456	952.87317	-1537.09021	-1403.59375	929.70404	-1300.1554	-1555.86108	968.39655	-1497.17322	-1562.31958	957.03094	-1348.10547	-1414.38831	653.61346	-1601.99719	-1392.41248	477.68875	-1566.38855	-1445.10852	283.88022	-1584.72351	-1475.55713	73.94973	-1556.80164	-1518.98975	37.02531	-1523.01733	-1325.42554	36.32903	-1530.42981	-1431.70349	628.06567	-1268.07922	-1380.15625	455.66223	-1289.79639	-1527.07019	339.0303	-1299.24573	-1697.17822	212.68626	-1351.61182	-1743.33875	225.6768	-1409.78223	-1649.25342	78.00763	-1357.72095	-1451.88135	1681.65112	-1415.04224	NaN	NaN	NaN	NaN	NaN	NaN	NaN	NaN	NaN	NaN	NaN	NaN	NaN	NaN	NaN	NaN	NaN	NaN
3	0.02	-1357.05823	1618.26538	-1457.86096	-1372.63232	1620.95544	-1325.83154	-1486.97778	1582.88367	-1469.09534	-1497.62927	1584.70178	-1338.71057	-1528.73462	1415.63684	-1419.21008	-1553.12512	1101.15662	-1425.25989	-1407.61609	1341.69495	-1408.54358	-1355.7196	1179.23474	-1414.45691	-1586.07043	1232.35132	-1335.45264	-1438.69531	1382.24561	-1566.56787	-1447.91956	1188.03845	-1646.83716	-1453.02563	1066.0282	-1666.65613	-1449.6748	935.94067	-1678.13428	-1459.12317	813.53088	-1661.20386	-1471.88855	828.43958	-1714.26624	-1480.5343	742.50922	-1712.56592	-1472.68982	1359.62207	-1253.68787	-1456.97534	1135.58667	-1189.11914	-1425.5708	1026.54858	-1182.75012	-1375.64978	899.79834	-1193.55298	-1321.22681	821.79724	-1238.10059	-1351.60059	802.19165	-1198.14001	-1309.19934	743.00793	-1214.5365	-1377.72302	952.74774	-1539.14783	-1392.79919	931.56024	-1302.00793	-1544.56055	968.95801	-1499.10913	-1551.33142	958.65875	-1350.09985	-1406.57825	652.97125	-1602.1781	-1388.13159	476.85312	-1566.61108	-1443.13135	283.78027	-1584.79187	-1475.39819	74.03862	-1556.70471	-1518.94531	37.18396	-1522.89111	-1325.35815	36.2606	-1530.31775	-1415.57129	630.49487	-1269.57361	-1360.13147	459.57599	-1289.8335	-1505.25171	340.49353	-1300.81995	-1671.03223	209.06548	-1355.62012	-1717.2832	219.61768	-1414.47266	-1616.83276	76.96481	-1359.7395	NaN	NaN	NaN	NaN	NaN	NaN	NaN	NaN	NaN	NaN	NaN	NaN	NaN	NaN	NaN	NaN	NaN	NaN	NaN	NaN	NaN
4	0.03	-1345.31067	1618.93787	-1458.92139	-1361.34021	1621.74854	-1326.99219	-1475.19336	1583.4585	-1470.72607	-1486.2605	1585.35876	-1340.28552	-1517.25952	1416.44653	-1420.8988	-1541.85034	1102.05225	-1427.6947	-1396.27991	1342.41284	-1409.4884	-1344.32642	1180.02283	-1415.38306	-1575.51111	1233.25464	-1338.09753	-1426.55615	1383.13245	-1567.72974	-1432.2478	1189.07397	-1648.46204	-1434.67151	1067.20422	-1668.88232	-1428.77441	937.2804	-1680.89636	-1436.30896	814.85675	-1664.8363	-1448.28174	829.6712	-1717.79395	-1451.31116	744.39441	-1717.95813	-1462.73352	1360.18665	-1255.20581	-1448.53149	1135.90027	-1190.59729	-1417.75977	1026.60974	-1183.69788	-1370.14075	898.65802	-1193.23938	-1317.20728	819.29889	-1236.41199	-1348.27551	800.65332	-1196.56409	-1306.74084	740.70776	-1212.0863	-1366.14453	953.20935	-1541.54236	-1382.38501	933.43878	-1304.13135	-1533.25586	969.435	-1501.22119	-1540.31323	960.32385	-1352.08655	-1399.25098	651.94177	-1602.12537	-1384.00061	476.05701	-1566.75806	-1441.54944	283.71609	-1584.77295	-1475.22241	74.2225	-1556.45959	-1518.89185	37.39024	-1522.68323	-1325.28076	36.16285	-1530.17102	-1399.81335	632.93719	-1270.01208	-1340.76538	463.2865	-1289.97937	-1483.06531	340.74326	-1302.66357	-1643.68604	203.66168	-1359.49414	-1690.31482	211.86653	-1418.66125	-1583.11487	74.9836	-1362.17212	-1428.8269	1683.255	-1419.03406	NaN	NaN	NaN	NaN	NaN	NaN	NaN	NaN	NaN	NaN	NaN	NaN	NaN	NaN	NaN	NaN	NaN	NaN
5	0.04	-1333.57947	1619.43701	-1459.93469	-1350.0564	1622.39465	-1328.08948	-1463.52844	1583.96143	-1472.37598	-1474.88794	1585.91553	-1341.64099	-1505.83508	1417.12329	-1422.55945	-1530.6748	1102.81848	-1430.13049	-1384.93408	1343.06152	-1410.4657	-1332.89966	1180.61987	-1416.27808	-1564.82166	1234.08154	-1340.45081	-1414.55396	1384.00928	-1568.89087	-1416.83545	1190.27783	-1650.16125	-1416.25146	1068.55054	-1670.97644	-1407.55237	938.86224	-1683.4198	-1412.9519	816.72449	-1668.72021	-1424.03369	831.3537	-1721.33728	-1421.88953	746.85309	-1722.74365	-1452.52783	1360.64954	-1256.59802	-1440.11584	1136.27063	-1192.04541	-1410.03345	1026.76013	-1184.58289	-1365.44165	897.60217	-1192.80786	-1313.32251	816.85004	-1234.69812	-1345.03003	799.24506	-1194.94946	-1304.41479	738.35297	-1209.40747	-1354.98145	953.19733	-1543.32581	-1371.73096	935.20074	-1305.98608	-1521.81299	969.73346	-1503.22864	-1529.21704	961.83978	-1354.02832	-1391.63879	651.36768	-1602.46423	-1380.03784	475.1926	-1566.81592	-1439.90491	283.65988	-1584.79651	-1475.11096	74.35195	-1556.21863	-1518.45862	37.01999	-1521.99707	-1325.31042	36.24524	-1530.20801	-1384.01147	635.10486	-1270.60388	-1321.88965	466.76184	-1290.2998	-1460.41138	339.78888	-1304.62964	-1615.51062	196.93387	-1362.87988	-1662.31848	202.70409	-1422.66626	-1548.48767	72.12945	-1364.91858	NaN	NaN	NaN	NaN	NaN	NaN	NaN	NaN	NaN	NaN	NaN	NaN	NaN	NaN	NaN	NaN	NaN	NaN	NaN	NaN	NaN
